<?xml version="1.0" encoding="UTF-8" standalone="no"?>
<!-- Created with Inkscape (http://www.inkscape.org/) -->

<svg
        xmlns:dc="http://purl.org/dc/elements/1.1/"
        xmlns:cc="http://creativecommons.org/ns#"
        xmlns:rdf="http://www.w3.org/1999/02/22-rdf-syntax-ns#"
        xmlns="http://www.w3.org/2000/svg"
        xmlns:sodipodi="http://sodipodi.sourceforge.net/DTD/sodipodi-0.dtd"
        xmlns:inkscape="http://www.inkscape.org/namespaces/inkscape"
        width="210mm"
        height="297mm"
        viewBox="0 0 210 297"
        version="1.1"
        id="svg8"
        inkscape:version="0.92.1 r15371"
        sodipodi:docname="Icons.svg">
  <sodipodi:namedview
     id="base"
     pagecolor="#ffffff"
     bordercolor="#666666"
     borderopacity="1.0"
     inkscape:pageopacity="0.0"
     inkscape:pageshadow="2"
     inkscape:zoom="0.3535534"
     inkscape:cx="639.15371"
     inkscape:cy="571.39259"
     inkscape:document-units="mm"
     inkscape:current-layer="layer1"
     showgrid="false"
     inkscape:window-width="1366"
     inkscape:window-height="706"
     inkscape:window-x="0"
     inkscape:window-y="25"
     inkscape:window-maximized="1" />
  <defs
     id="defs2">
    <inkscape:perspective
       id="perspective4598"
       inkscape:persp3d-origin="105 : 99 : 1"
       inkscape:vp_z="210 : 148.5 : 1"
       inkscape:vp_y="0 : 1000 : 0"
       inkscape:vp_x="0 : 148.5 : 1"
       sodipodi:groupName="inkscape:persp3d" />
  </defs>
  <metadata
     id="metadata5">
    <rdf:RDF>
      <cc:Work
         rdf:about="">
        <dc:format>image/svg+xml</dc:format>
        <dc:groupName
           rdf:resource="http://purl.org/dc/dcmitype/StillImage" />
        <dc:title />
      </cc:Work>
    </rdf:RDF>
  </metadata>
  <g
     id="layer1"
     inkscape:groupmode="layer"
     inkscape:label="Layer 1">
    <flowRoot
       style="fill:black;fill-opacity:1;stroke:none;font-family:sans-serif;font-style:normal;font-weight:normal;font-size:40px;line-height:1.25;letter-spacing:0px;word-spacing:0px"
       id="flowRoot3680"
       xml:space="preserve"><flowRegion
         id="flowRegion3682"><rect
           y="-1394.6232"
           x="-348.57144"
           height="114.28571"
           width="125.71429"
           id="rect3684" /></flowRegion><flowPara
         id="flowPara3686" /></flowRoot>    <rect
       ry="0.4680368"
       y="113.48039"
       x="102.89626"
       height="15.050159"
       width="15.050159"
       id="rect4614"
       style="fill:none;stroke:#000000;stroke-width:0.80000001;stroke-miterlimit:4;stroke-dasharray:none;stroke-opacity:1" />
    <g
       id="g4659"
       inkscape:label="Cube:x0.00:x0.00:x0.00:x0.00:x0.00:x0.00"
       transform="matrix(0.41695042,0,0,0.37017826,-3.6515328,-320.38402)" />
    <rect
       ry="0.4680368"
       y="118.9391"
       x="98.314514"
       height="15.050159"
       width="15.050159"
       id="rect4614-5"
       style="fill:none;stroke:#000000;stroke-width:0.80000001;stroke-miterlimit:4;stroke-dasharray:none;stroke-opacity:1" />
    <path
       style="color:#000000;font-style:normal;font-variant:normal;font-weight:normal;font-stretch:normal;font-size:medium;line-height:normal;font-family:sans-serif;font-variant-ligatures:normal;font-variant-position:normal;font-variant-caps:normal;font-variant-numeric:normal;font-variant-alternates:normal;font-feature-settings:normal;text-indent:0;text-align:start;text-decoration:none;text-decoration-line:none;text-decoration-style:solid;text-decoration-color:#000000;letter-spacing:normal;word-spacing:normal;text-transform:none;writing-mode:lr-tb;direction:ltr;text-orientation:mixed;dominant-baseline:auto;baseline-shift:baseline;text-anchor:start;white-space:normal;shape-padding:0;clip-rule:nonzero;displayName:inline;overflow:visible;visibility:visible;opacity:1;isolation:auto;mix-blend-mode:normal;color-interpolation:sRGB;color-interpolation-filters:linearRGB;solid-color:#000000;solid-opacity:1;vector-effect:none;fill:#000000;fill-opacity:1;fill-rule:nonzero;stroke:none;stroke-width:0.93275672;stroke-linecap:butt;stroke-linejoin:miter;stroke-miterlimit:4;stroke-dasharray:none;stroke-dashoffset:0;stroke-opacity:1;color-rendering:auto;image-rendering:auto;shape-rendering:auto;text-rendering:auto;enable-background:accumulate"
       d="m 158.28005,115.75388 -11.83578,11.56904 c -0.40988,0.40065 -0.42625,1.08159 -0.0361,1.50148 l 4.08285,4.39396 c 0.39014,0.41988 1.05408,0.43585 1.46396,0.0352 l 11.83578,-11.56904 c 2.8731,-2.9116 -2.4106,-8.22159 -5.51071,-5.93064 z m 0.79635,0.68778 4.08285,4.39397 c 0.0493,0.0531 0.0478,0.1143 -0.004,0.16496 l -11.83578,11.56904 c -0.0518,0.0507 -0.11291,0.0506 -0.16224,-0.002 l -4.08285,-4.39397 c -0.0493,-0.0531 -0.0465,-0.11568 0.005,-0.16634 l 11.83577,-11.56904 c 0.0518,-0.0507 0.11152,-0.0492 0.16086,0.004 z"
       id="rect4693"
       inkscape:connector-curvature="0"
       sodipodi:nodetypes="ccccccccccccccccc" />
    <rect
       style="fill:none;stroke:#000000;stroke-width:0.80000001;stroke-miterlimit:4;stroke-dasharray:none;stroke-opacity:1"
       id="rect4695"
       width="9.646759"
       height="22.21678"
       x="44.451126"
       y="127.34114"
       ry="0.49999899" />
    <rect
       style="fill:#150000;fill-opacity:1;stroke:#000000;stroke-width:0.80000001;stroke-miterlimit:4;stroke-dasharray:none;stroke-opacity:1"
       id="rect4697"
       width="3.2155869"
       height="11.985371"
       x="47.666714"
       y="127.34114"
       ry="0.49999899" />
    <ellipse
       style="fill:#000000;fill-opacity:1;stroke:#000000;stroke-width:1.06139576;stroke-miterlimit:4;stroke-dasharray:none;stroke-opacity:1"
       id="path4704"
       cx="159.35367"
       cy="120.11104"
       rx="0.96930206"
       ry="0.96930212" />
    <circle
       style="fill:#000000;fill-opacity:1;stroke:#000000;stroke-width:0.77633989;stroke-miterlimit:4;stroke-dasharray:none;stroke-opacity:1"
       id="path4706"
       cx="49.274506"
       cy="121.99281"
       r="4.6118302" />
    <rect
       style="fill:none;fill-opacity:1;stroke:#000000;stroke-width:0.80000001;stroke-miterlimit:4;stroke-dasharray:none;stroke-opacity:1"
       id="rect4708"
       width="6.4274607"
       height="9.9766836"
       x="107.41197"
       y="158.05702"
       ry="0.26333559" />
    <rect
       style="fill:none;fill-opacity:1;stroke:#000000;stroke-width:0.80000001;stroke-miterlimit:4;stroke-dasharray:none;stroke-opacity:1"
       id="rect4708-3"
       width="6.1230302"
       height="15.09721"
       x="113.99163"
       y="152.80727"
       ry="0.39849237" />
    <rect
       style="fill:none;fill-opacity:1;stroke:#000000;stroke-width:0.80000001;stroke-miterlimit:4;stroke-dasharray:none;stroke-opacity:1"
       id="rect4708-5"
       width="5.9291334"
       height="19.086666"
       x="120.51604"
       y="148.73549"
       ry="0.50379443" />
    <rect
       style="fill:none;fill-opacity:1;stroke:#000000;stroke-width:0.80000001;stroke-miterlimit:4;stroke-dasharray:none;stroke-opacity:1"
       id="rect4708-6"
       width="6.4274607"
       height="23.324436"
       x="126.69433"
       y="144.36852"
       ry="0.61565083" />
    <circle
       id="path25"
       cx="72.200676"
       cy="83.513657"
       style="stroke-width:0.24987802"
       r="8"
       inkscape:export-xdpi="23.809999"
       inkscape:export-ydpi="23.809999" />
    <path
       sodipodi:groupName="spiral"
       style="fill:#ffffff;fill-rule:evenodd;stroke:#000000;stroke-width:0.26458332"
       id="path27"
       sodipodi:cx="31.617981"
       sodipodi:cy="-375.39688"
       sodipodi:expansion="1"
       sodipodi:revolution="3"
       sodipodi:radius="6.2191153"
       sodipodi:argument="-18.480223"
       sodipodi:t0="0"
       d="m 31.617981,-375.39688 c 0.29079,0.11256 -0.0083,0.44751 -0.187088,0.48331 -0.484593,0.097 -0.805295,-0.43689 -0.779537,-0.85749 0.04608,-0.75235 0.836724,-1.18746 1.52789,-1.07576 1.014315,0.16393 1.577579,1.24076 1.371985,2.19829 -0.274025,1.27624 -1.646129,1.97088 -2.868692,1.66821 -1.538471,-0.38088 -2.365785,-2.05209 -1.964433,-3.53909 0.486091,-1.80096 2.458385,-2.76161 4.209494,-2.26066 2.063622,0.59036 3.158018,2.86488 2.556881,4.8799 -0.694037,2.32641 -3.271511,3.55481 -5.550296,2.8531 -2.589301,-0.79732 -3.95187,-3.67824 -3.149329,-6.2207 0.900331,-2.85225 4.085033,-4.34912 6.891098,-3.44555 3.115264,1.00314 4.746532,4.49188 3.741776,7.5615"
       transform="rotate(-21.579162,1257.5582,-251.32088)"
       inkscape:export-xdpi="23.809999"
       inkscape:export-ydpi="23.809999" />
    <path
       sodipodi:groupName="spiral"
       style="fill:#000000;fill-rule:evenodd;stroke:none;stroke-width:0.26458332"
       id="path27-6"
       sodipodi:cx="31.617981"
       sodipodi:cy="-375.39688"
       sodipodi:expansion="1"
       sodipodi:revolution="3"
       sodipodi:radius="6.2191153"
       sodipodi:argument="-18.480223"
       sodipodi:t0="0"
       d="m 31.617981,-375.39688 c 0.29079,0.11256 -0.0083,0.44751 -0.187088,0.48331 -0.484593,0.097 -0.805295,-0.43689 -0.779537,-0.85749 0.04608,-0.75235 0.836724,-1.18746 1.52789,-1.07576 1.014315,0.16393 1.577579,1.24076 1.371985,2.19829 -0.274025,1.27624 -1.646129,1.97088 -2.868692,1.66821 -1.538471,-0.38088 -2.365785,-2.05209 -1.964433,-3.53909 0.486091,-1.80096 2.458385,-2.76161 4.209494,-2.26066 2.063622,0.59036 3.158018,2.86488 2.556881,4.8799 -0.694037,2.32641 -3.271511,3.55481 -5.550296,2.8531 -2.589301,-0.79732 -3.95187,-3.67824 -3.149329,-6.2207 0.900331,-2.85225 4.085033,-4.34912 6.891098,-3.44555 3.115264,1.00314 4.746532,4.49188 3.741776,7.5615"
       transform="matrix(5.5181223,-2.3973857,2.182458,6.0615452,766.23012,2409.1092)"
       inkscape:export-xdpi="96"
       inkscape:export-ydpi="96" />
  </g>
</svg>
